<svg width="18" height="19" viewBox="0 0 18 19" fill="none" xmlns="http://www.w3.org/2000/svg">
<path d="M1.71146 18.498C1.4864 18.4993 1.2633 18.456 1.05494 18.3707C0.846587 18.2854 0.65708 18.1597 0.497287 18.0009C0.178777 17.6797 0 17.2453 0 16.7924C0 16.3396 0.178777 15.9051 0.497287 15.584L15.0161 1.03112C15.1744 0.866799 15.3635 0.735342 15.5725 0.644257C15.7815 0.553172 16.0064 0.504243 16.2343 0.500264C16.4621 0.496285 16.6886 0.537332 16.9006 0.621064C17.1127 0.704796 17.3062 0.829572 17.4701 0.988269C17.6341 1.14696 17.7652 1.33647 17.8561 1.54597C17.947 1.75547 17.9958 1.98086 17.9997 2.20927C18.0037 2.43768 17.9628 2.66464 17.8792 2.87718C17.7957 3.08973 17.6712 3.2837 17.5129 3.44803L2.90854 18.0866C2.57668 18.3721 2.14829 18.5193 1.71146 18.498Z" fill="#D88535"/>
<path d="M16.3094 18.4907C15.8974 18.4888 15.5026 18.3091 15.2101 17.9905L1.87761 3.34674C1.62034 3.01678 1.48591 2.59235 1.50117 2.15825C1.51644 1.72415 1.68028 1.31237 1.95996 1.00519C2.23963 0.698009 2.61454 0.518054 3.00977 0.501286C3.405 0.484519 3.79143 0.632175 4.09185 0.914746L17.5029 15.5585C17.6598 15.7198 17.7849 15.9148 17.8704 16.1314C17.9559 16.348 18 16.5815 18 16.8176C18 17.0537 17.9559 17.2872 17.8704 17.5038C17.7849 17.7204 17.6598 17.9154 17.5029 18.0767C17.3404 18.2319 17.1506 18.3487 16.9453 18.4199C16.74 18.4912 16.5235 18.5152 16.3094 18.4907Z" fill="#D88535"/>
</svg>
