<svg width="196" height="196" viewBox="0 0 196 196" fill="none" xmlns="http://www.w3.org/2000/svg">
<path d="M193.815 127.65C192.408 137.17 189.067 146.691 184.143 155.154C161.632 193.414 100.431 201.701 56.4655 189.006C50.662 187.243 45.0344 185.304 39.9343 182.835C21.8204 174.196 10.0375 156.917 4.7616 138.934C3.00296 133.115 1.94778 127.297 1.59605 121.655C-0.162583 95.9135 11.972 68.5852 34.8343 51.6592C42.3964 46.0172 50.4862 40.0226 59.8069 37.7306C69.3036 35.4385 77.3933 40.3752 86.7141 40.3752C94.2762 40.5516 100.959 37.0253 108.169 35.2622C110.28 34.7333 112.214 34.3806 114.325 34.2043C119.425 33.6754 124.525 34.028 129.449 35.2622C156.884 42.491 180.449 63.6484 190.122 90.2715C194.519 102.437 195.75 115.308 193.815 127.65Z" fill="#FF8900"/>
<path d="M193.815 127.65C192.408 137.171 189.067 146.692 184.143 155.155C161.632 193.414 100.431 201.701 56.4656 189.006C50.6621 187.243 45.0344 185.304 39.9344 182.835C21.8204 174.196 10.0376 156.918 4.76166 138.934C7.39961 144.223 10.741 149.336 14.61 153.92C19.1825 159.21 24.4584 163.97 30.4378 167.496C21.117 152.686 19.3583 133.468 25.8653 117.247C24.8101 139.463 38.1758 161.854 58.4001 171.375C53.8276 158.504 53.3 139.815 55.7621 126.416C57.5208 144.399 66.3139 166.086 80.7348 177.017C80.383 171.375 80.0313 165.91 79.6796 160.268C81.4382 167.144 84.9555 173.491 89.8797 178.428C95.6832 159.386 98.1453 139.463 98.497 119.363C100.607 129.589 103.421 139.815 105.356 150.041C106.938 158.152 108.521 166.262 108.169 174.549C123.294 160.268 130.504 138.934 133.142 118.305C135.78 134.526 140.528 156.918 132.087 172.609C147.035 161.502 158.115 144.928 162.511 126.768C162.687 139.286 160.929 151.805 157.587 163.794C167.787 157.623 178.163 151.276 185.725 141.931C188.891 137.7 191.705 132.763 193.815 127.65Z" fill="#ED7803"/>
<path d="M108.697 195.53C90.9348 196.94 72.645 195.177 56.1138 190.24C50.1344 188.477 44.5068 186.362 39.4068 183.893C27.9756 178.428 18.3031 169.259 11.2686 157.27C4.93747 146.691 1.06847 133.997 0.189154 121.831C-1.74535 94.5031 11.2686 67.351 33.955 50.4251C41.3413 44.9594 49.7827 38.7885 59.4552 36.3201C65.4346 34.7333 71.0622 36.1438 76.3381 37.378C79.6795 38.0832 83.1968 38.9648 86.8899 38.9648C91.6383 38.9648 96.0349 37.5543 100.783 35.9675C103.069 35.2623 105.356 34.3807 107.818 33.8518C109.928 33.3228 112.038 32.9702 114.149 32.7939C119.601 32.265 124.877 32.6176 129.801 34.0281C157.939 41.6095 181.505 62.9432 191.353 89.9189C199.267 111.782 196.981 135.76 185.198 155.86C171.656 178.78 146.859 188.477 128.57 192.532C122.063 194.119 115.38 195.001 108.697 195.53ZM63.6759 38.6122C62.6208 38.6122 61.3897 38.7885 60.3345 39.1411C51.1896 41.4332 43.2758 47.2515 35.7136 52.7171C13.7307 68.9378 1.06847 95.3846 3.00297 121.479C4.40988 141.578 14.9617 169.436 40.4619 181.601C45.3861 183.893 51.0138 186.009 56.8173 187.772C79.1519 194.296 105.18 195.177 128.042 190.064C145.98 186.009 170.073 176.664 182.912 154.625C194.343 135.231 196.453 112.134 188.715 90.9768C179.394 64.7063 156.356 43.9015 129.097 36.6727C124.525 35.4386 119.425 35.0859 114.325 35.6149C112.39 35.7912 110.28 36.1438 108.345 36.6727C106.059 37.2017 103.773 38.0832 101.662 38.7885C96.9142 40.3753 91.99 41.9621 86.7141 41.9621C82.8451 41.9621 79.1519 41.0805 75.6347 40.199C71.5898 39.1411 67.7208 38.2596 63.6759 38.6122Z" fill="black"/>
<path d="M85.1313 42.8438C83.3727 43.549 81.614 43.7253 79.6795 43.7253C77.9209 43.7253 75.9864 43.549 74.2277 43.3727C72.4691 43.1964 70.7105 43.1964 68.9518 43.3727C67.1932 43.549 65.6104 44.0779 64.0277 44.7832C60.8621 46.1937 58.0483 48.1331 55.5862 50.6015C53.1241 53.0699 51.0137 55.8908 49.0792 58.8881C47.1447 61.8854 45.3861 64.8827 43.6275 68.0564C41.8688 71.23 40.2861 74.4036 38.7033 77.7535C35.5377 84.1007 32.8998 90.6243 31.1411 97.6768C30.2618 101.027 29.5584 104.553 29.0308 108.079C28.5032 111.605 28.1515 115.132 28.1515 118.658C27.9756 122.184 28.1515 125.71 28.3273 129.237C28.6791 132.763 29.0308 136.289 29.7342 139.815C29.9101 140.697 30.086 141.578 30.2618 142.46C30.4377 143.342 30.6136 144.223 30.9653 145.105L31.6687 147.573C31.8446 148.455 32.1963 149.336 32.5481 150.041C33.7791 153.391 35.186 156.741 36.7688 159.739C38.5274 162.912 40.4619 165.909 42.5723 168.73C44.8585 171.551 47.1447 174.196 49.7827 176.665C46.9689 174.549 44.1551 172.08 41.693 169.436C39.2309 166.791 37.1205 163.794 35.0101 160.62C31.1411 154.449 28.3273 147.397 26.5687 140.344C23.0514 125.887 23.579 110.724 27.0963 96.4426C29.0308 89.2138 31.6687 82.3376 35.186 75.8141C38.7033 69.4669 41.8688 62.9433 46.2654 56.9487C48.3758 53.9514 50.8379 51.1304 53.6517 48.6621C56.4655 46.1937 59.6311 44.0779 63.1483 42.8438C64.907 42.3148 66.8415 41.7859 68.776 41.7859C70.7105 41.7859 72.4691 41.9622 74.2277 42.3148C75.9864 42.6674 77.745 43.0201 79.5037 43.1964C81.4382 43.3727 83.3727 43.1964 85.1313 42.8438Z" fill="#ED7803"/>
<path d="M96.9142 41.9622C100.607 41.0807 104.125 39.4939 107.994 38.436C109.928 37.9071 111.863 37.5544 113.797 37.5544C115.732 37.5544 117.842 37.9071 119.776 38.2597C127.339 40.3754 134.373 44.2543 140.528 49.191C146.684 54.1278 151.784 60.1224 156.004 66.8222C160.225 73.5221 163.391 80.7509 165.677 88.156C167.963 95.5611 169.546 103.319 170.425 111.077C170.777 114.955 171.129 118.834 171.129 122.713C171.305 126.592 171.129 130.471 170.777 134.35C170.425 138.229 169.722 142.107 168.842 145.986C167.963 149.865 166.556 153.568 164.973 157.094C161.808 164.146 157.235 170.67 151.256 175.607C156.532 169.965 160.577 163.441 163.215 156.389C164.622 152.862 165.677 149.16 166.38 145.457C166.732 143.518 167.084 141.755 167.26 139.815C167.436 137.876 167.611 136.113 167.787 134.173C167.963 132.234 167.963 130.471 167.963 128.531C167.963 126.592 167.963 124.829 167.787 122.889C167.611 119.187 167.26 115.308 166.732 111.605C165.853 104.024 164.27 96.6189 161.984 89.3901C159.698 82.1614 156.708 75.2852 152.839 68.7616C148.97 62.4144 144.046 56.5961 138.418 51.4831C135.604 49.0147 132.615 46.7227 129.273 44.7832C126.108 42.8438 122.59 41.257 119.073 40.0228C117.314 39.4939 115.556 38.9649 113.621 38.9649C111.863 38.7886 109.928 39.1413 107.994 39.4939C106.059 39.8465 104.3 40.3754 102.366 40.7281C100.607 41.257 98.8487 41.6096 96.9142 41.9622Z" fill="#ED7803"/>
<path d="M87.7693 42.4913C86.5382 43.5492 84.9554 44.4308 83.3727 45.136C81.7899 45.8413 80.2071 46.3702 78.6243 46.8991C77.9209 47.2518 77.0416 47.4281 76.3381 47.7807C75.6347 48.1333 74.9312 48.4859 74.2278 49.0149C72.8208 49.8964 71.7657 50.9543 70.5346 52.1885C68.4242 54.6569 66.4897 57.3015 64.907 60.2988C63.3242 63.2961 62.0932 66.2934 61.2138 69.4671C60.1586 72.6407 59.6311 75.8143 58.9276 79.1642C58.4 82.5141 57.8724 85.6878 57.5207 89.0377C57.169 92.3876 56.9931 95.7375 56.8172 99.0875C56.6414 102.437 56.8172 105.787 56.8172 109.137C56.9931 112.487 57.169 115.837 57.3448 119.187C57.6966 122.537 58.0483 125.887 58.4 129.237C59.2793 135.937 60.3345 142.637 61.7414 149.16C62.0931 150.747 62.4449 152.51 62.9725 154.097C63.3242 155.684 63.8518 157.27 64.3794 159.034C65.2587 162.207 66.3139 165.381 67.5449 168.554C68.776 171.728 70.1829 174.725 72.1174 177.37C72.645 178.075 73.1726 178.78 73.5243 179.309C74.0519 180.015 74.5795 180.544 75.2829 181.249C76.514 182.483 77.745 183.541 79.1519 184.599C76.1622 183.012 73.5243 180.72 71.2381 178.075C70.1829 176.841 69.1277 175.254 68.2484 173.844C67.3691 172.433 66.4897 170.846 65.7863 169.26C64.2035 166.086 62.9725 162.912 61.9173 159.739C60.6862 156.565 59.8069 153.215 58.9276 149.865C58.4 148.278 58.0483 146.515 57.6966 144.929C57.3448 143.342 56.9931 141.579 56.6414 139.992C55.9379 136.642 55.4103 133.292 54.8827 129.942C54.3552 126.592 54.0034 123.242 53.6517 119.716C53.3 116.366 53.1241 112.84 52.9482 109.49C52.5965 95.7375 53.8276 81.9852 58.0483 68.7618C60.3345 62.2383 63.8518 55.891 68.776 51.1306C70.007 49.8964 71.4139 48.8386 72.9967 47.957C73.7002 47.6044 74.5795 47.2518 75.4588 46.8991C76.3381 46.5465 77.0416 46.3702 77.9209 46.1939C79.5037 45.8413 81.2623 45.3123 82.8451 44.7834C84.7796 44.0781 86.3623 43.3729 87.7693 42.4913Z" fill="#ED7803"/>
<path d="M92.5176 43.0204C92.8693 43.9019 93.3969 44.4309 93.9245 44.9598C94.6279 45.4888 95.3314 45.8414 96.2107 46.0177C97.7935 46.3703 99.5521 46.3703 101.311 46.3703C104.828 46.5466 108.345 47.7808 111.335 49.7202C114.325 51.6597 116.963 54.128 119.073 56.949C121.183 59.77 122.766 62.9436 124.173 66.1172C125.58 69.2909 126.635 72.6408 127.514 75.9907C127.866 77.5775 128.394 79.3406 128.745 80.9274C129.097 82.6906 129.449 84.2774 129.801 86.0405C131.208 92.7403 132.087 99.6165 132.79 106.493C133.318 113.369 133.494 120.245 133.318 127.121C133.318 128.884 133.142 130.647 132.966 132.234C132.79 133.997 132.79 135.584 132.615 137.347C132.263 140.697 131.911 144.223 131.383 147.573C130.856 150.923 130.152 154.45 129.273 157.799C128.394 161.149 127.339 164.499 125.932 167.673C123.294 174.02 119.601 180.015 114.676 184.775C119.073 179.486 122.063 173.315 124.173 166.968C125.228 163.794 126.108 160.444 126.811 157.27C127.514 153.921 128.042 150.571 128.394 147.221C129.097 140.521 129.625 133.821 129.625 126.945C129.801 120.245 129.449 113.369 128.921 106.669C128.394 99.9691 127.514 93.2693 126.283 86.5694C125.932 84.9826 125.58 83.2195 125.404 81.6327C125.052 80.0459 124.701 78.2828 124.349 76.696C123.47 73.346 122.766 70.1724 121.535 66.9988C120.48 63.8252 118.897 60.8279 117.138 58.1832C115.38 55.5385 113.094 53.0702 110.456 51.1307C107.818 49.1913 104.652 47.7808 101.487 47.4282C99.9039 47.2519 98.1452 47.0756 96.3866 46.5466C95.5073 46.194 94.8038 45.8414 94.1004 45.1361C93.221 44.6072 92.6934 43.7256 92.5176 43.0204Z" fill="#ED7803"/>
<path d="M89.5279 43.3729C91.99 55.0095 93.9245 66.8224 95.3314 78.6353C95.6831 81.6326 96.0348 84.6299 96.3866 87.4509L97.2659 96.4428C97.6176 99.4401 97.7935 102.437 97.9693 105.435L98.6728 114.427L99.2004 123.419C99.3763 126.416 99.3762 129.413 99.5521 132.41L99.728 141.402V145.81V150.218C99.728 162.207 99.2004 174.02 98.1452 186.009L96.7383 150.218L96.5624 145.81L96.3866 141.402L96.0348 132.41C95.859 129.413 95.6831 126.416 95.5073 123.595L94.9797 114.603L94.4521 105.787C94.2762 102.79 94.1003 99.7927 93.9245 96.9718L93.221 88.1562C93.0452 85.1589 92.6934 82.1615 92.5176 79.3406L89.5279 43.3729Z" fill="#ED7803"/>
<path d="M8.80652 94.8557C10.9169 86.7453 14.4342 78.8113 19.1825 71.7588C21.4687 68.2326 24.1067 64.8826 26.9205 61.709C29.7343 58.5354 32.8998 55.7144 36.2413 52.8934C39.5827 50.2487 43.0999 47.7804 46.7931 45.6646C50.4862 43.7252 54.5311 41.9621 58.7518 40.9042C60.8622 40.3753 62.9725 40.0227 65.0829 39.8463C67.1933 39.67 69.3036 39.67 71.414 39.8463C75.6347 40.199 79.8554 40.9042 83.9003 41.7858C79.6796 41.4332 75.4588 41.0805 71.414 41.2568C67.1933 41.2568 63.1484 41.7858 59.2794 43.02C55.4104 44.2541 51.5414 45.841 48.0241 47.9567C44.5068 50.0724 41.1654 52.3645 37.824 55.0092C34.6585 57.6538 31.4929 60.2985 28.6791 63.4721C25.8653 66.4694 23.2273 69.6431 20.7652 72.993C16.0169 79.6928 11.9721 86.9216 8.80652 94.8557Z" fill="#FFC064"/>
<path d="M79.8554 44.7832C77.9209 45.4885 75.8106 45.4885 73.8761 45.4885C72.8209 45.4885 71.9416 45.6648 71.0622 45.8411C70.5346 46.0174 70.1829 46.0174 69.6553 46.1937C69.1277 46.3701 68.776 46.5464 68.2484 46.7227C66.4898 47.4279 64.907 48.3095 63.3242 49.3674C61.7415 50.4252 60.3345 51.6594 58.9276 53.0699C56.1138 55.8909 53.8276 58.8882 51.3655 62.0618C49.0793 65.2354 46.793 68.5854 44.1551 71.759C45.7379 68.0564 47.4965 64.3539 49.6069 61.0039C51.7172 57.4777 54.0035 54.1278 56.9931 51.1305C58.4001 49.72 60.1587 48.3095 61.9173 47.2516C63.676 46.1937 65.6105 45.1359 67.7208 44.6069C68.2484 44.4306 68.776 44.4306 69.3036 44.2543C69.8312 44.078 70.3588 44.078 70.8864 44.078C71.9416 44.078 72.9967 44.078 74.0519 44.2543C75.9864 44.4306 77.7451 44.7832 79.8554 44.7832Z" fill="#FFC064"/>
<path d="M86.0107 45.6647C83.7245 46.7225 81.4382 47.7804 79.5037 49.3672C78.4485 50.0725 77.7451 50.954 76.8658 51.8356C75.9865 52.7171 75.283 53.775 74.5795 54.8329C73.1726 56.9486 71.9416 59.0644 71.0623 61.3564C70.7105 61.8854 70.5347 62.4143 70.3588 63.1196C70.183 63.6485 69.8312 64.1774 69.6554 64.8827L68.9519 66.6458L68.2485 68.4089C66.4898 73.1693 65.2588 77.9298 64.2036 82.8665C63.676 85.3349 63.1484 87.8032 62.7967 90.2716C62.445 92.74 61.9174 95.3846 61.5656 97.853C61.2139 92.74 61.3898 87.6269 62.0932 82.5139C62.7967 77.4008 63.8519 72.2878 65.6105 67.351C66.4898 64.8827 67.545 62.5906 68.6002 60.1222C69.8312 57.8302 71.0623 55.5381 72.8209 53.4224C74.5795 51.3067 76.3382 49.5435 78.8003 48.133C81.0865 46.8989 83.5486 46.1936 86.0107 45.6647Z" fill="#FFC064"/>
<path d="M98.1453 47.9568C100.607 47.9568 102.894 48.8383 105.004 50.0725C107.114 51.483 108.697 53.2461 110.28 55.1856C111.687 57.125 113.094 59.2407 114.149 61.3565C115.204 63.4722 116.259 65.588 117.139 67.88C118.897 72.4641 119.952 77.2246 120.48 81.985C121.008 86.7454 121.008 91.5058 120.656 96.2662C119.952 91.5058 119.249 86.9217 118.37 82.3376C117.49 77.7535 116.259 73.3457 114.676 68.9379C113.797 66.8222 112.918 64.7064 111.863 62.5907C110.807 60.4749 109.752 58.5355 108.521 56.5961C107.994 55.5382 107.29 54.6566 106.587 53.7751C106.235 53.2461 105.883 52.8935 105.532 52.5409C105.18 52.1883 104.652 51.6593 104.3 51.3067C102.542 49.7199 100.607 48.662 98.1453 47.9568Z" fill="#FFC064"/>
<path d="M98.6729 43.5499C100.959 43.1972 103.069 42.6683 105.356 42.1394C106.411 41.9631 107.642 41.6104 108.873 41.4341C110.104 41.2578 111.159 41.2578 112.39 41.2578C114.852 41.2578 117.139 41.7867 119.425 42.492C121.711 43.1972 123.821 44.2551 125.932 45.4893C129.977 47.9577 133.494 51.3076 136.308 55.0101C139.121 58.7127 141.584 62.7679 143.166 67.1757C140.528 63.4731 137.715 59.7706 134.725 56.5969C133.142 55.0101 131.559 53.4233 129.801 52.0128C128.042 50.6023 126.283 49.1918 124.525 48.134C122.59 46.8998 120.656 46.0182 118.721 45.313C116.611 44.6077 114.501 44.0788 112.39 43.7262C111.335 43.5499 110.28 43.5499 109.049 43.5499C107.994 43.5499 106.763 43.5499 105.707 43.7262C103.421 43.7262 100.959 43.9025 98.6729 43.5499Z" fill="#FFC064"/>
<path d="M137.89 43.02C144.046 45.3121 149.849 48.4857 155.125 52.3646C160.401 56.2434 165.325 61.0038 169.37 66.1169C173.415 71.4062 176.932 77.0482 179.57 83.2191C182.208 89.39 183.967 95.7373 184.67 102.261C182.736 95.9136 180.449 89.919 177.636 84.1007C174.646 78.2824 171.305 72.8167 167.26 67.88C163.215 62.767 158.818 58.1828 153.894 54.1277C148.97 50.0725 143.694 46.3699 137.89 43.02Z" fill="#FFC064"/>
<g opacity="0.5">
<path opacity="0.5" d="M106.938 43.1965C107.114 45.8412 99.5521 48.6621 89.8796 49.5437C80.2071 50.2489 72.2932 48.6621 72.1174 45.8412C71.9415 43.1965 79.5037 40.3755 89.1762 39.4939C98.8487 38.965 106.763 40.5518 106.938 43.1965Z" fill="#C66106"/>
</g>
<path d="M100.607 43.5499C93.9245 45.313 86.89 46.5472 80.2071 44.9604C79.8554 44.7841 79.5037 44.7841 79.152 44.4315C78.9761 44.2552 78.9761 43.9025 78.8002 43.5499C78.8002 43.021 78.4485 42.492 78.2726 41.9631C77.3933 39.3184 77.2175 36.1448 78.0968 33.5001C79.6796 27.6819 83.5486 23.4504 88.121 19.7478C89.5279 18.6899 90.759 17.6321 91.99 16.3979C92.5176 15.869 93.0452 15.1637 93.3969 14.6348C96.0349 10.5796 93.3969 5.64286 90.0555 2.82187C89.8797 2.64556 89.7038 2.64556 89.5279 2.46925C89.8797 2.11662 90.0555 1.764 90.4072 1.41138C92.8693 2.99818 95.3314 4.58499 97.4418 6.52442C99.3763 8.28754 100.607 10.9322 100.959 13.5769C100.959 13.9295 100.959 14.2821 100.959 14.6348C100.783 17.4558 99.2004 19.7478 97.6177 22.0399C97.2659 22.5688 96.9142 23.0977 96.5625 23.6267C95.6832 25.2135 94.9797 26.624 94.8038 28.5634C94.628 30.8555 94.9797 33.1475 96.0349 35.2633C96.9142 36.8501 97.9694 38.2606 98.8487 39.8474C99.2004 40.0237 100.783 43.5499 100.607 43.5499Z" fill="#844003"/>
<path d="M100.607 43.549C93.9245 45.3121 86.89 46.5463 80.2071 44.9595C79.8554 44.7832 79.5037 44.7832 79.152 44.4306C78.9761 44.2543 78.9761 43.9016 78.8002 43.549C78.8002 43.0201 78.4485 42.4911 78.2726 41.9622C77.3933 39.3175 77.2175 36.1439 78.0968 33.4992C79.6796 27.6809 83.5486 23.4494 88.121 19.7469C89.5279 18.689 90.759 17.6312 91.99 16.397C91.8142 17.1022 91.4624 17.6312 91.1107 18.1601C90.0555 20.0995 88.4727 21.6863 87.2417 23.6258C85.3072 26.4468 84.0761 29.6204 83.5486 32.9703C86.0107 28.2099 89.7038 24.1547 94.1004 21.3337C92.3417 22.5679 91.2866 24.8599 90.9348 26.9757C90.5831 29.4441 90.759 31.7361 91.1107 34.2045C91.6383 31.0309 92.1659 27.6809 94.2762 25.2126C94.9797 24.5073 95.6832 23.9784 96.5625 23.4494C95.6832 25.0363 94.9797 26.4468 94.8038 28.3862C94.628 30.6782 94.9797 32.9703 96.0349 35.086C96.9142 36.6728 97.9694 38.0833 98.8487 39.6701C99.2004 40.0228 100.783 43.549 100.607 43.549Z" fill="#682F00"/>
<path d="M89.5279 47.0753C87.4175 47.2516 85.483 47.2516 83.7244 47.0753C83.3727 47.0753 83.0209 47.0753 82.8451 47.0753C81.7899 47.0753 80.7347 47.0753 79.6795 46.5463C77.9209 45.6648 77.3933 43.9017 77.0416 42.6675V42.4912C76.1623 39.4939 76.1623 36.3203 77.0416 33.323C78.8002 26.7994 83.7244 21.8627 87.4175 18.8654C89.1762 17.4549 91.1107 15.8681 92.3417 13.9286C94.4521 10.5787 92.3417 6.34723 89.352 4.05517C89.1762 3.87886 89.0003 3.87886 89.0003 3.70255C88.6486 3.52624 88.4727 3.17361 88.4727 2.82099C88.4727 2.46837 88.4727 2.11574 88.8244 1.76312C89.1762 1.4105 89.352 1.05787 89.7038 0.705248C89.7038 0.176312 90.0555 0 90.5831 0C92.3417 0 99.5521 6.69985 99.728 6.69985C102.894 10.5787 103.069 15.8681 100.256 20.6285L100.08 20.8048C97.6176 24.86 95.3314 28.7388 96.9142 33.1466C97.4418 34.3808 98.1452 35.615 99.0245 36.8492C99.3763 37.5544 99.9038 38.2597 100.256 38.9649C101.135 40.3754 101.487 41.6096 101.838 42.8438C101.838 43.0201 102.014 43.549 101.662 44.078C101.311 44.6069 100.783 44.7832 100.607 44.7832C96.3866 46.1937 92.8693 46.7227 89.5279 47.0753ZM94.6279 5.99461C96.2107 8.8156 96.5624 12.3418 94.6279 15.3391C93.221 17.6312 90.9348 19.3943 89.0003 20.9811C85.483 23.8021 81.0864 28.2099 79.5037 34.0282C78.8002 36.6729 78.8002 39.3176 79.5037 41.7859V41.9622C79.8554 43.0201 80.0313 43.7254 80.5588 44.078C81.0864 44.2543 81.7899 44.4306 82.6692 44.4306C83.0209 44.4306 83.3727 44.4306 83.7244 44.4306C85.483 44.6069 87.2417 44.6069 89.1762 44.4306C91.99 44.2543 95.1555 43.7254 98.6728 42.6675C98.4969 41.9622 98.1452 41.257 97.6176 40.3754C97.2659 39.6702 96.9142 39.1412 96.3866 38.436C95.5073 37.2018 94.6279 35.7913 94.1003 34.2045C91.99 28.5625 94.8038 23.6258 97.4418 19.3943L97.6176 19.218C99.3763 16.2207 100.256 11.9892 97.2659 8.46297C97.2659 8.28666 96.0348 7.05248 94.6279 5.99461Z" fill="black"/>
<path d="M99.9038 42.8439C99.3763 42.8439 98.8487 42.6675 98.6728 42.1386C96.5624 38.965 95.859 35.0861 96.5624 31.7362C97.2659 28.21 99.5521 25.0364 102.718 23.6259C103.245 22.568 104.125 21.6864 105.004 21.1575C107.466 19.3944 110.632 19.5707 113.445 19.9233C113.797 19.9233 114.149 19.9233 114.676 20.0996C119.425 20.4522 123.997 19.5707 128.394 17.6313C129.097 17.2786 129.977 17.6313 130.152 18.3365C130.504 19.0418 130.152 19.9233 129.449 20.0996C124.701 22.2154 119.601 23.0969 114.501 22.7443C114.149 22.7443 113.621 22.7443 113.269 22.568C110.807 22.3917 108.873 22.3917 107.29 22.9206C107.642 22.9206 107.994 23.0969 108.345 23.2732C110.456 23.9785 111.687 26.0942 111.511 28.0337C111.335 29.7968 109.928 31.5599 107.818 32.2651C105.883 32.9704 103.773 32.6178 102.542 31.3836C101.662 30.502 101.311 29.2678 101.311 28.0337C100.256 29.2678 99.3763 30.8546 99.0245 32.4415C98.4969 35.2624 99.2004 38.2598 100.783 40.7281C101.135 41.4334 100.959 42.1386 100.431 42.6676C100.256 42.8439 100.08 42.8439 99.9038 42.8439ZM104.476 25.9179V26.0942C104.125 27.1521 103.773 28.7389 104.476 29.4442C105.004 29.9731 106.235 29.9731 106.938 29.7968C107.818 29.4442 108.697 28.7389 108.697 27.8573C108.697 27.1521 108.169 26.2705 107.29 25.9179C106.411 25.389 105.356 25.5653 104.476 25.9179Z" fill="black"/>
</svg>
